<svg width="289" height="288" viewBox="0 0 350 350" fill="none" xmlns="http://www.w3.org/2000/svg">
<path d="M288.856 137.506C288.943 139.463 288.991 141.43 288.999 143.407L288.402 143.409C288.402 143.606 288.403 143.803 288.403 144C288.403 144.197 288.402 144.394 288.402 144.591L288.999 144.593C288.991 146.57 288.943 148.537 288.856 150.494L288.259 150.467C288.252 150.629 288.244 150.79 288.237 150.951C288.226 151.181 288.214 151.41 288.202 151.638L288.799 151.67C288.695 153.644 288.551 155.607 288.368 157.559L287.773 157.503C287.737 157.892 287.699 158.28 287.659 158.668L288.253 158.729C288.053 160.695 287.813 162.649 287.534 164.591L286.943 164.506C286.887 164.893 286.83 165.279 286.771 165.665L287.362 165.754C287.065 167.707 286.729 169.647 286.354 171.573L285.768 171.459C285.693 171.842 285.617 172.225 285.539 172.608L286.124 172.727C285.731 174.661 285.299 176.582 284.829 178.487L284.25 178.344C284.156 178.724 284.061 179.103 283.964 179.481L284.543 179.629C284.055 181.541 283.528 183.437 282.964 185.318L282.392 185.146C282.279 185.521 282.165 185.895 282.05 186.268L282.621 186.444C282.038 188.329 281.418 190.196 280.761 192.047L280.198 191.847C280.067 192.216 279.935 192.584 279.801 192.951L280.362 193.156C279.687 195.008 278.975 196.843 278.227 198.659L277.675 198.431C277.526 198.793 277.375 199.154 277.223 199.514L277.774 199.746C277.008 201.562 276.206 203.359 275.368 205.136L274.828 204.882C274.661 205.236 274.493 205.589 274.323 205.942L274.861 206.201C274.007 207.976 273.117 209.731 272.193 211.465L271.666 211.184C271.481 211.529 271.296 211.874 271.109 212.218L271.634 212.503C270.693 214.233 269.717 215.942 268.708 217.629L268.196 217.323C267.995 217.659 267.793 217.994 267.589 218.328L268.099 218.639C267.074 220.32 266.016 221.979 264.925 223.614L264.428 223.283C264.211 223.609 263.992 223.934 263.772 224.258L264.267 224.593C263.161 226.222 262.022 227.827 260.852 229.407L260.373 229.052C260.139 229.366 259.905 229.68 259.67 229.993L260.147 230.352C258.963 231.924 257.747 233.472 256.501 234.993L256.039 234.615C255.791 234.918 255.541 235.22 255.291 235.521L255.75 235.903C254.49 237.415 253.201 238.901 251.882 240.36L251.439 239.959C251.176 240.25 250.912 240.539 250.647 240.828L251.087 241.232C249.755 242.68 248.395 244.101 247.006 245.494L246.583 245.073C246.306 245.35 246.029 245.627 245.75 245.902L246.169 246.327C244.769 247.708 243.341 249.062 241.885 250.385L241.484 249.944C241.194 250.207 240.903 250.47 240.611 250.731L241.009 251.176C239.544 252.487 238.051 253.769 236.532 255.021L236.153 254.56C235.85 254.809 235.547 255.057 235.243 255.304L235.619 255.768C234.091 257.006 232.538 258.214 230.96 259.39L230.603 258.911C230.289 259.145 229.974 259.378 229.658 259.609L230.011 260.091C228.425 261.253 226.815 262.384 225.181 263.482L224.848 262.986C224.523 263.204 224.197 263.421 223.87 263.637L224.199 264.135C222.559 265.218 220.895 266.269 219.208 267.286L218.9 266.774C218.565 266.976 218.229 267.177 217.892 267.377L218.196 267.891C216.505 268.892 214.792 269.859 213.057 270.793L212.774 270.267C212.429 270.452 212.084 270.636 211.738 270.819L212.017 271.347C210.279 272.264 208.52 273.147 206.741 273.994L206.484 273.455C206.131 273.623 205.777 273.79 205.422 273.955L205.675 274.497C203.894 275.327 202.094 276.122 200.275 276.881L200.045 276.33C199.685 276.481 199.323 276.63 198.961 276.778L199.186 277.331C197.367 278.072 195.53 278.778 193.676 279.447L193.473 278.885C193.105 279.017 192.737 279.149 192.368 279.278L192.566 279.842C190.713 280.493 188.844 281.107 186.957 281.684L186.783 281.113C186.409 281.227 186.035 281.34 185.66 281.451L185.83 282.024C183.948 282.583 182.05 283.104 180.137 283.588L179.991 283.009C179.612 283.104 179.233 283.199 178.853 283.291L178.994 283.872C177.088 284.337 175.166 284.764 173.231 285.154L173.113 284.568C172.731 284.645 172.347 284.721 171.963 284.794L172.076 285.381C170.15 285.752 168.209 286.085 166.256 286.379L166.167 285.788C165.782 285.846 165.395 285.903 165.008 285.958L165.092 286.549C163.15 286.825 161.196 287.063 159.229 287.261L159.169 286.667C158.782 286.706 158.393 286.744 158.004 286.78L158.059 287.374C156.107 287.555 154.144 287.698 152.17 287.801L152.139 287.204C151.749 287.225 151.359 287.243 150.968 287.261L150.994 287.857C149.037 287.943 147.07 287.991 145.093 287.999L145.091 287.402C144.894 287.402 144.697 287.403 144.5 287.403C144.303 287.403 144.106 287.402 143.909 287.402L143.907 287.999C141.93 287.991 139.963 287.943 138.006 287.857L138.032 287.261C137.641 287.243 137.251 287.225 136.861 287.204L136.83 287.801C134.856 287.698 132.893 287.555 130.941 287.374L130.996 286.78C130.607 286.744 130.219 286.706 129.831 286.667L129.771 287.261C127.804 287.063 125.85 286.825 123.908 286.549L123.992 285.958C123.605 285.903 123.219 285.846 122.833 285.788L122.744 286.379C120.791 286.085 118.85 285.752 116.924 285.381L117.037 284.794C116.653 284.721 116.269 284.645 115.887 284.568L115.769 285.154C113.834 284.764 111.912 284.337 110.006 283.872L110.147 283.291C109.767 283.199 109.388 283.104 109.009 283.009L108.863 283.588C106.95 283.104 105.052 282.583 103.17 282.024L103.34 281.451C102.965 281.34 102.591 281.227 102.217 281.113L102.043 281.684C100.157 281.107 98.2868 280.493 96.4344 279.842L96.6324 279.278C96.2632 279.149 95.8948 279.017 95.527 278.885L95.3245 279.447C93.4697 278.778 91.6326 278.072 89.814 277.331L90.0395 276.778C89.6771 276.63 89.3155 276.481 88.9546 276.33L88.7246 276.881C86.9057 276.122 85.1056 275.327 83.3252 274.497L83.5776 273.955C83.2229 273.79 82.869 273.623 82.5159 273.455L82.2591 273.994C80.4801 273.147 78.7213 272.264 76.9835 271.347L77.2622 270.819C76.916 270.636 76.5706 270.452 76.2261 270.267L75.9431 270.793C74.2084 269.859 72.4951 268.892 70.804 267.891L71.1082 267.377C70.7713 267.177 70.4353 266.977 70.1002 266.774L69.7918 267.286C68.1053 266.269 66.4415 265.218 64.801 264.135L65.13 263.637C64.8033 263.421 64.4774 263.204 64.1525 262.986L63.8195 263.482C62.1852 262.384 60.5747 261.253 58.9889 260.091L59.3418 259.609C59.0259 259.378 58.7111 259.145 58.3971 258.911L58.0403 259.39C56.462 258.214 54.9086 257.006 53.3811 255.768L53.7571 255.304C53.4528 255.057 53.1496 254.809 52.8474 254.56L52.4676 255.021C50.9489 253.769 49.4563 252.487 47.9908 251.176L48.389 250.731C48.0971 250.47 47.8062 250.207 47.5164 249.944L47.1146 250.386C45.6591 249.062 44.2309 247.708 42.8308 246.327L43.2503 245.902C42.9714 245.627 42.6936 245.35 42.417 245.073L41.9941 245.495C40.6052 244.101 39.2446 242.68 37.9134 241.232L38.3531 240.828C38.088 240.539 37.824 240.25 37.5612 239.959L37.1183 240.36C35.7992 238.901 34.5096 237.415 33.2505 235.903L33.7093 235.521C33.4587 235.22 33.2092 234.918 32.961 234.615L32.499 234.993C31.2529 233.472 30.0374 231.924 28.8535 230.352L29.3305 229.993C29.0949 229.68 28.8606 229.366 28.6275 229.052L28.1475 229.407C26.9776 227.827 25.8393 226.222 24.7335 224.593L25.2276 224.258C25.0076 223.934 24.789 223.609 24.5717 223.283L24.0749 223.615C22.984 221.979 21.9258 220.32 20.9011 218.639L21.411 218.328C21.2074 217.994 21.0051 217.659 20.8041 217.323L20.2916 217.629C19.2826 215.942 18.3072 214.233 17.3664 212.503L17.891 212.218C17.7041 211.874 17.5186 211.53 17.3344 211.184L16.8075 211.465C15.883 209.731 14.9931 207.976 14.1386 206.201L14.6767 205.942C14.5071 205.589 14.3388 205.236 14.172 204.882L13.6318 205.136C12.7943 203.359 11.9923 201.562 11.2265 199.746L11.7767 199.514C11.6248 199.154 11.4743 198.793 11.3252 198.431L10.7731 198.659C10.0248 196.843 9.31278 195.008 8.63778 193.156L9.19885 192.951C9.06501 192.584 8.93263 192.216 8.80173 191.847L8.23899 192.047C7.58195 190.197 6.96179 188.329 6.3794 186.444L6.94993 186.268C6.83454 185.895 6.72064 185.521 6.60823 185.146L6.03626 185.318C5.47209 183.437 4.94543 181.541 4.45715 179.629L5.03574 179.481C4.93908 179.103 4.84393 178.724 4.75029 178.344L4.1705 178.487C3.70054 176.582 3.26864 174.661 2.87565 172.727L3.46085 172.608C3.38313 172.225 3.30694 171.842 3.23228 171.459L2.64611 171.573C2.27134 169.647 1.93508 167.707 1.63817 165.754L2.22855 165.665C2.16989 165.279 2.11278 164.893 2.05721 164.506L1.46612 164.591C1.18714 162.649 0.94703 160.695 0.746604 158.729L1.34069 158.668C1.30114 158.28 1.26315 157.892 1.22672 157.503L0.632159 157.559C0.449233 155.607 0.305405 153.644 0.20146 151.67L0.797795 151.638C0.777263 151.249 0.758293 150.858 0.740892 150.468L0.144322 150.494C0.0571619 148.537 0.00920029 146.57 0.00120036 144.593L0.598357 144.591C0.597561 144.394 0.597162 144.197 0.597162 144C0.597162 143.803 0.597561 143.606 0.598357 143.409L0.00120015 143.407C0.00919936 141.43 0.0571603 139.463 0.144319 137.506L0.74089 137.533C0.758291 137.142 0.77726 136.752 0.797792 136.362L0.201457 136.33C0.305401 134.356 0.449229 132.393 0.632154 130.441L1.22671 130.497C1.26315 130.108 1.30114 129.72 1.34068 129.332L0.7466 129.271C0.947025 127.305 1.18713 125.351 1.46611 123.409L2.05721 123.494C2.11277 123.108 2.16988 122.721 2.22854 122.336L1.63816 122.246C1.93507 120.293 2.27133 118.353 2.6461 116.427L3.23227 116.541C3.30693 116.158 3.38312 115.775 3.46084 115.392L2.87564 115.273C3.26863 113.339 3.70053 111.418 4.17049 109.513L4.75028 109.656C4.84392 109.276 4.93907 108.897 5.03573 108.519L4.45714 108.371C4.94542 106.459 5.47208 104.563 6.03625 102.682L6.60822 102.854C6.72063 102.479 6.83453 102.105 6.94992 101.732L6.37939 101.556C6.96178 99.6713 7.58194 97.8035 8.23898 95.9531L8.80172 96.1529C8.93262 95.7842 9.065 95.4162 9.19884 95.049L8.63777 94.8445C9.31277 92.9921 10.0248 91.1575 10.7731 89.3415L11.3252 89.569C11.4743 89.2072 11.6248 88.8461 11.7767 88.4858L11.2265 88.2538C11.9923 86.4378 12.7943 84.6408 13.6318 82.8636L14.172 83.1182C14.3388 82.7641 14.507 82.4109 14.6767 82.0584L14.1386 81.7994C14.9931 80.0242 15.883 78.2691 16.8075 76.535L17.3344 76.816C17.5186 76.4706 17.7041 76.126 17.891 75.7822L17.3664 75.497C18.3072 73.7666 19.2826 72.0576 20.2916 70.3708L20.8041 70.6774C21.0051 70.3414 21.2074 70.0063 21.411 69.6721L20.9011 69.3614C21.9258 67.6799 22.984 66.021 24.0749 64.3855L24.5717 64.7169C24.789 64.3911 25.0076 64.0663 25.2275 63.7424L24.7335 63.407C25.8392 61.7783 26.9776 60.1734 28.1475 58.5931L28.6275 58.9485C28.8605 58.6336 29.0949 58.3198 29.3305 58.007L28.8535 57.6477C30.0374 56.0756 31.2529 54.5284 32.499 53.0071L32.9609 53.3855C33.2092 53.0824 33.4586 52.7803 33.7093 52.4793L33.2504 52.0972C34.5096 50.5852 35.7992 49.0993 37.1183 47.6404L37.5612 48.0409C37.824 47.7503 38.0879 47.4607 38.353 47.1723L37.9134 46.7682C39.2446 45.3198 40.6051 43.8986 41.9941 42.5055L42.417 42.9272C42.6936 42.6497 42.9713 42.3734 43.2502 42.0982L42.8308 41.6732C44.2308 40.2916 45.6591 38.9385 47.1146 37.6145L47.5164 38.0563C47.8062 37.7927 48.097 37.5303 48.389 37.269L47.9908 36.824C49.4563 35.5126 50.9488 34.2306 52.4675 32.979L52.8473 33.4398C53.1495 33.1907 53.4528 32.9429 53.7571 32.6962L53.381 32.2323C54.9085 30.9941 56.4619 29.7864 58.0402 28.61L58.3971 29.0888C58.711 28.8549 59.0259 28.6222 59.3418 28.3907L58.9888 27.909C60.5747 26.747 62.1852 25.6165 63.8194 24.5184L64.1525 25.0141C64.4774 24.7958 64.8032 24.5788 65.13 24.3631L64.801 23.8647C66.4414 22.7818 68.1053 21.7313 69.7917 20.7143L70.1001 21.2257C70.4352 21.0236 70.7712 20.8228 71.1081 20.6233L70.8039 20.1095C72.495 19.1083 74.2084 18.1406 75.9431 17.2071L76.226 17.733C76.5706 17.5476 76.9159 17.3636 77.2622 17.1809L76.9835 16.6527C78.7213 15.7359 80.4801 14.8533 82.259 14.0059L82.5158 14.545C82.8689 14.3768 83.2229 14.21 83.5776 14.0446L83.3252 13.5034C85.1055 12.6731 86.9056 11.878 88.7246 11.1189L88.9546 11.67C89.3155 11.5194 89.6771 11.3702 90.0394 11.2225L89.814 10.6695C91.6325 9.92798 93.4696 9.22235 95.3244 8.55348L95.527 9.11523C95.8947 8.98261 96.2632 8.85144 96.6323 8.72173L96.4343 8.15834C98.2867 7.50742 100.156 6.89307 102.043 6.31615L102.217 6.8872C102.591 6.7729 102.965 6.66007 103.34 6.54872L103.17 5.97626C105.052 5.41751 106.95 4.89593 108.863 4.41238L109.009 4.99134C109.388 4.89561 109.767 4.80138 110.147 4.70865L110.006 4.12852C111.912 3.66318 113.834 3.23555 115.769 2.84646L115.887 3.43191C116.269 3.35495 116.653 3.27951 117.037 3.20559L116.924 2.6192C118.85 2.24819 120.791 1.91532 122.744 1.62141L122.833 2.21193C123.218 2.15386 123.605 2.09732 123.992 2.04232L123.908 1.4511C125.85 1.17496 127.804 0.937299 129.771 0.738923L129.831 1.33307C130.218 1.29393 130.607 1.25633 130.996 1.22026L130.941 0.625652C132.893 0.444598 134.856 0.302244 136.83 0.19937L136.861 0.795722C137.251 0.775406 137.641 0.756635 138.032 0.739416L138.006 0.142834C139.963 0.0565715 141.93 0.00910529 143.907 0.00118798L143.909 0.598345C144.106 0.597556 144.303 0.597162 144.5 0.597162C144.697 0.597162 144.894 0.597556 145.091 0.598345L145.093 0.00118764C147.07 0.00910385 149.037 0.056569 150.994 0.14283L150.968 0.739413C151.359 0.756631 151.749 0.775402 152.139 0.795718L152.17 0.199365C154.144 0.302239 156.107 0.444591 158.059 0.625645L158.004 1.22026C158.393 1.25632 158.781 1.29392 159.169 1.33306L159.229 0.738915C161.196 0.937291 163.15 1.17495 165.092 1.45109L165.008 2.04231C165.395 2.09731 165.781 2.15385 166.167 2.21192L166.256 1.6214C168.209 1.91531 170.15 2.24818 172.076 2.61919L171.963 3.20557C172.347 3.2795 172.731 3.35494 173.113 3.43189L173.231 2.84644C175.166 3.23554 177.088 3.66317 178.994 4.1285L178.853 4.70863C179.233 4.80136 179.612 4.89559 179.991 4.99132L180.137 4.41236C182.05 4.89591 183.948 5.41749 185.83 5.97624L185.66 6.5487C186.035 6.66005 186.409 6.77288 186.783 6.88718L186.957 6.31613C188.843 6.89305 190.713 7.5074 192.566 8.15832L192.368 8.72171C192.737 8.85142 193.105 8.98259 193.473 9.11521L193.676 8.55346C195.53 9.22233 197.367 9.92796 199.186 10.6695L198.96 11.2224C199.323 11.3702 199.684 11.5194 200.045 11.67L200.275 11.1189C202.094 11.878 203.894 12.6731 205.675 13.5034L205.422 14.0446C205.777 14.21 206.131 14.3768 206.484 14.545L206.741 14.0059C208.52 14.8533 210.279 15.7359 212.016 16.6527L211.738 17.1809C212.084 17.3635 212.429 17.5476 212.774 17.733L213.057 17.2071C214.792 18.1405 216.505 19.1083 218.196 20.1094L217.892 20.6233C218.229 20.8227 218.565 21.0235 218.9 21.2256L219.208 20.7142C220.895 21.7313 222.559 22.7818 224.199 23.8647L223.87 24.363C224.197 24.5788 224.523 24.7958 224.847 25.0141L225.18 24.5184C226.815 25.6165 228.425 26.747 230.011 27.909L229.658 28.3907C229.974 28.6221 230.289 28.8548 230.603 29.0888L230.96 28.61C232.538 29.7863 234.091 30.9941 235.619 32.2323L235.243 32.6962C235.547 32.9428 235.85 33.1907 236.153 33.4398L236.532 32.979C238.051 34.2306 239.544 35.5126 241.009 36.824L240.611 37.269C240.903 37.5302 241.194 37.7927 241.484 38.0562L241.885 37.6145C243.341 38.9384 244.769 40.2916 246.169 41.6731L245.75 42.0982C246.029 42.3734 246.306 42.6497 246.583 42.9271L247.006 42.5055C248.395 43.8985 249.755 45.3197 251.087 46.7682L250.647 47.1723C250.912 47.4607 251.176 47.7502 251.439 48.0409L251.882 47.6404C253.201 49.0992 254.49 50.5852 255.75 52.0972L255.291 52.4793C255.541 52.7803 255.791 53.0824 256.039 53.3854L256.501 53.0071C257.747 54.5284 258.963 56.0756 260.147 57.6477L259.669 58.0069C259.905 58.3198 260.139 58.6336 260.373 58.9484L260.852 58.5931C262.022 60.1733 263.161 61.7782 264.267 63.4069L263.772 63.7423C263.992 64.0662 264.211 64.3911 264.428 64.7169L264.925 64.3855C266.016 66.0209 267.074 67.6799 268.099 69.3614L267.589 69.6721C267.793 70.0063 267.995 70.3414 268.196 70.6774L268.708 70.3708C269.717 72.0575 270.693 73.7666 271.634 75.497L271.109 75.7822C271.296 76.1259 271.481 76.4705 271.666 76.8159L272.193 76.535C273.117 78.269 274.007 80.0241 274.861 81.7994L274.323 82.0584C274.493 82.4108 274.661 82.7641 274.828 83.1181L275.368 82.8636C276.206 84.6407 277.008 86.4378 277.774 88.2537L277.223 88.4858C277.375 88.8461 277.526 89.2071 277.675 89.5689L278.227 89.3415C278.975 91.1575 279.687 92.9921 280.362 94.8445L279.801 95.0489C279.935 95.4162 280.067 95.7842 280.198 96.1529L280.761 95.9531C281.418 97.8035 282.038 99.6713 282.621 101.556L282.05 101.732C282.165 102.105 282.279 102.479 282.392 102.854L282.964 102.682C283.528 104.563 284.055 106.459 284.543 108.371L283.964 108.519C284.061 108.897 284.156 109.276 284.25 109.656L284.829 109.513C285.299 111.418 285.731 113.339 286.124 115.273L285.539 115.392C285.617 115.775 285.693 116.158 285.768 116.541L286.354 116.427C286.729 118.353 287.065 120.293 287.362 122.246L286.771 122.335C286.83 122.721 286.887 123.107 286.943 123.494L287.534 123.409C287.813 125.351 288.053 127.305 288.253 129.271L287.659 129.332C287.699 129.72 287.737 130.108 287.773 130.497L288.368 130.441C288.551 132.393 288.695 134.356 288.799 136.33L288.202 136.362C288.223 136.751 288.242 137.142 288.259 137.533L288.856 137.506Z" stroke="black" stroke-opacity="0.3" stroke-width="1.19432" stroke-dasharray="1.19 5.97"/>
</svg>
